<svg xmlns="http://www.w3.org/2000/svg" width="512" height="512" viewBox="0 0 24 24"><path fill="#eab308" d="M11.727 11.7L8.1 9.85s-.646-.344-.617.38c.029.724 0 3.591 0 3.591s-.1.767.612.427s3.094-1.571 3.627-1.841c.715-.367.005-.707.005-.707m-.006 5.023l-3.628-1.854s-.647-.345-.618.38c.029.725 0 3.591 0 3.591s-.1.768.613.427s3.093-1.571 3.626-1.841c.717-.367.007-.703.007-.703m4.953-2.464l-3.628-1.854s-.647-.344-.617.38c.03.724-.005 3.591-.005 3.591s-.1.768.612.427s3.094-1.57 3.626-1.841c.722-.362.012-.703.012-.703m4.205-2.918L17.844 9.8c-.506-.257-.457.333-.457.333v3.824s-.054.564.468.3l3.025-1.526c1.398-.702-.001-1.39-.001-1.39m-4.203-2.229l-3.629-1.855s-.647-.343-.617.38c.03.723 0 3.592 0 3.592s-.1.767.612.427s3.094-1.571 3.626-1.841c.717-.367.008-.703.008-.703M7.012 4.257s-1.494-.74-2.945-1.479c-1.451-.739-1.539.693-1.539.693v3.128c0 .369.373.217.373.217s3.7-1.886 4.113-2.1c.413-.214-.002-.459-.002-.459m1.071 4.924c.715-.34 3.094-1.57 3.626-1.841c.722-.366.013-.7.013-.7L8.093 4.783s-.646-.344-.618.38c.028.724 0 3.591 0 3.591s-.107.768.608.427m-4.961 2.573c.716-.341 3.094-1.571 3.626-1.841c.723-.367.013-.7.013-.7L3.133 7.355s-.647-.343-.618.38c.029.723-.005 3.592-.005 3.592s-.103.767.612.427m-.005 4.954c.716-.34 3.094-1.57 3.627-1.841c.722-.366.012-.7.012-.7L3.128 12.31s-.647-.343-.618.38c.029.723 0 3.591 0 3.591a.68.68 0 0 0 0 .087v.014c-.01.196.058.588.607.326M7 19.334c-.418-.216-4.115-2.1-4.115-2.1s-.374-.151-.373.218l.006 3.128s.09 1.434 1.54.692S7 19.791 7 19.791s.415-.24 0-.457"/></svg>